<svg width="16" height="16" viewBox="0 0 16 16" fill="none" xmlns="http://www.w3.org/2000/svg">
<rect width="16" height="16" rx="4" fill="#109CF1"/>
<path d="M5.7352 9.767C5.9152 9.617 6.0112 9.539 6.0232 9.533C6.5992 9.053 7.0552 8.663 7.3912 8.363C7.7272 8.057 8.0092 7.742 8.2372 7.418C8.4652 7.094 8.5792 6.785 8.5792 6.491C8.5792 6.245 8.5222 6.056 8.4082 5.924C8.3002 5.792 8.1352 5.726 7.9132 5.726C7.4572 5.726 7.2202 6.053 7.2022 6.707H5.7172C5.7292 6.197 5.8372 5.771 6.0412 5.429C6.2512 5.087 6.5242 4.835 6.8602 4.673C7.2022 4.511 7.5802 4.43 7.9942 4.43C8.4742 4.43 8.8732 4.517 9.1912 4.691C9.5152 4.859 9.7522 5.09 9.9022 5.384C10.0582 5.678 10.1362 6.005 10.1362 6.365C10.1362 6.977 9.9202 7.55 9.4882 8.084C9.0562 8.612 8.5012 9.137 7.8232 9.659H10.2532V10.91H5.7352V9.767Z" fill="white"/>
</svg>
