<svg width="16" height="16" viewBox="0 0 16 16" fill="none" xmlns="http://www.w3.org/2000/svg">
<path d="M0.5 4C0.5 2.067 2.067 0.5 4 0.5H12C13.933 0.5 15.5 2.067 15.5 4V12C15.5 13.933 13.933 15.5 12 15.5H4C2.067 15.5 0.5 13.933 0.5 12V4Z" stroke="#C2CFE0"/>
<path d="M6.49995 9.95838L4.47066 7.92909L4.39995 7.85838L4.32924 7.92909L3.62924 8.62909L3.55853 8.6998L3.62924 8.77051L6.42924 11.5705L6.49995 11.6412L6.57066 11.5705L12.5707 5.57052L12.6414 5.4998L12.5707 5.42909L11.8707 4.72909L11.8 4.65838L11.7292 4.72909L6.49995 9.95838Z" fill="#C2CFE0" stroke="#C2CFE0" stroke-width="0.2"/>
</svg>
